<?xml version="1.0" encoding="utf-8"?>
<svg version="1.1" xmlns="http://www.w3.org/2000/svg" xmlns:xlink="http://www.w3.org/1999/xlink"
width="84" height="84">

<defs>
  <linearGradient id="Brown">
    <stop stop-color="#b98947" offset="0"></stop>
    <stop stop-color="#b98947" offset="1"></stop>
  </linearGradient>
</defs>
<g transform="matrix(0.8139534592628479,0,0,0.8139534592628479,-5.6976720898650415,-4.883827276008073)">
  <g xmlns="http://www.w3.org/2000/svg" transform="translate(0,-940)">
    <path
      d="m 34.118436,959.00375 c -0.14095,0.428 -0.0483,0.9463 0.34764,1.1825 11.71091,7.1832 20.94811,14.1398 29.03724,21.9016 L 7.3042266,1036.3902 c -0.39252,0.3623 -0.40766,1.0542 -0.0312,1.4332 l 5.0010404,4.9847 c 0.38015,0.3751 1.07438,0.3599 1.4378,-0.031 l 54.448719,-55.98475 c 7.799374,8.2411 14.682354,17.50775 22.004544,28.91155 0.25459,0.3795 0.79079,0.5418 1.21409,0.3671 0.4233,-0.1745 0.68775,-0.667 0.59878,-1.1149 -2.81937,-12.1774 -6.60076,-23.71975 -17.87868,-34.27005 l 2.62553,-2.7104 c 0.36553,-0.3685 0.36553,-1.0333 0,-1.4019 l -3.00062,-2.9908 c -0.602394,-0.4313 -1.057044,-0.3165 -1.406544,0 l -2.81308,2.7105 c -10.41966,-10.4503 -21.1089,-15.099 -34.28831,-17.9139 -0.58472,-0.097 -0.88889,0.2256 -1.09786,0.6242 z m 6.75522,2.9584 c 20.04066,5.5247 43.014144,25.9631 47.697264,47.97745 C 74.0074,988.52245 59.467496,973.40245 40.873656,961.96215 z m 32.10036,13.7391 1.625344,1.62 -2.000414,2.0562 c -0.61954,-0.5357 -1.16852,-1.0861 -1.71904,-1.6511 0.6981,-0.6749 1.39635,-1.3502 2.09411,-2.0251 z m -8.06416,7.7886 c 0.62736,0.6198 1.26078,1.2382 1.87539,1.8693 l -53.792349,55.29925 -3.5632304,-3.5515 z m -8.75181,25.14165 -3.84454,5.7325 -5.62615,1.8693 c -0.14998,0.04 -0.29033,0.1153 -0.40634,0.2181 l -3.00062,2.9908 c -0.18376,0.1893 -0.28745,0.4534 -0.28131,0.7167 0.008,1.8074 -0.0279,3.6167 0.0314,5.4222 -0.90213,0.64 -1.34402,0.8606 -2.37559,1.5563 l -4.6572,0 c -0.19745,0 -0.39602,0.05 -0.56262,0.1557 l -3.00061,1.994 c -0.27317,0.1852 -0.4433,0.5119 -0.4376,0.8411 l 0,3.5515 -1.7191,1.7137 c -0.18376,0.1892 -0.28744,0.4531 -0.28131,0.7165 l 0,3.9878 c -1.7e-4,0.4381 0.32452,0.8561 0.75016,0.9658 3.84861,0.959 7.9183,3.022 12.25252,3.022 2.87818,-0.081 5.62654,0.089 8.25171,-0.6543 -0.14675,0.5872 -0.25005,1.1353 -0.25005,1.6512 -9.5e-4,0.5019 0.43517,0.9655 0.93768,0.9969 13.12783,1.0066 19.18768,-0.9969 30.068704,-0.9969 0.13998,0 0.27941,-0.034 0.40633,-0.093 l 9.00187,-3.9879 c 0.28685,-0.1321 0.50289,-0.4073 0.56261,-0.7166 l 1.00021,-4.9847 c 0.0576,-0.2661 -4.3e-4,-0.5552 -0.15628,-0.7788 l -2.81308,-3.7386 0,-3.645 c 0.005,-0.1968 -0.0502,-0.3948 -0.15628,-0.5608 l -2.00042,-2.9908 c -0.15358,-0.2143 -0.3955,-0.3635 -0.65638,-0.405 l -4.71973,-0.9347 -7.81411,-6.8228 c -0.40059,-0.3563 -0.70151,-0.1617 -1.09398,-0.1562 -0.427464,0.213 -0.923704,0.4093 -1.375284,0.6231 -1.96394,-1.5971 -4.50185,-2.679 -6.53259,-3.6139 -3.2684,-1.5036 -6.80851,-3.0703 -8.09543,-3.9255 -0.64382,-0.2181 -0.9694,0.061 -1.40659,0.2803 z m 1.18775,1.8382 c 1.8411,1.0709 4.61706,2.287 7.50154,3.614 1.88206,0.8735 3.65526,1.7456 5.3136,2.7416 -2.52794,1.1157 -5.39355,2.2759 -8.56426,3.3958 -2.67903,-1.1686 -5.96418,-2.9387 -7.81411,-4.3928 1.24183,-1.8648 2.50018,-3.7592 3.56323,-5.3586 z m -7.31401,6.7294 c 2.31911,1.5371 5.25604,3.0617 9.6895,3.6762 -0.35038,0.119 -0.67389,0.2239 -1.03146,0.3426 -0.289,0.098 -0.52689,0.3351 -0.62514,0.6231 -0.2421,0.7242 -0.53808,1.5285 -0.90643,2.3056 -1.2315,-0.039 -2.59201,-0.4602 -3.78203,-0.9347 -1.80863,-0.659 -3.64767,-1.1336 -4.75091,-0.9972 -1.4042,0.5599 -2.54555,1.2035 -3.62575,1.9005 l 0,-3.5206 2.59429,-2.5857 c 0.81247,-0.27 1.62596,-0.5402 2.43793,-0.8098 z m 23.817414,0.1558 4.75098,4.1435 c -2.19883,1.9784 -6.878624,4.6985 -11.596144,5.639 6.37542,0 11.069854,-1.6571 14.127924,-3.4582 0.15028,0.2643 0.48731,0.3182 0.68764,0.4362 l 4.56344,0.9035 1.62533,2.4611 0,3.6452 c -0.002,0.2104 0.0645,0.421 0.18754,0.5919 l 2.75056,3.6451 -0.81266,4.05 -8.34547,3.6763 c -3.61111,0.01 -6.65902,0.2235 -9.626994,0.4673 1.601564,-1.8638 3.815134,-2.8541 11.846204,-4.4551 -3.61719,0.3575 -7.00144,0 -12.002484,0.997 l -3.40695,3.7386 c -4.52519,0.3745 -9.15676,0.6813 -15.40943,0.2803 1.49598,-4.8289 1.74532,-9.475 0.87519,-13.5211 1.41645,-0.7137 2.62963,-1.7975 3.53197,-3.1467 0.97098,-1.4516 1.6097,-3.0653 2.12544,-4.5173 5.57313,-1.867 10.26582,-3.6932 14.127914,-5.5766 z m -24.661344,6.8228 c 1.19721,0.04 2.25118,0.4302 3.43822,0.9034 1.01,0.4028 2.14086,0.8415 3.4382,0.997 -0.91331,1.2263 -2.08499,2.6573 -3.37569,3.1155 -0.485,0.1562 -0.79251,0.7254 -0.65639,1.215 0.92673,3.8015 0.66435,7.4035 -0.21879,10.8418 -2.90659,0.8541 -5.96232,0.8405 -8.81432,0.8411 -3.44169,0 -7.12973,-1.6776 -11.00227,-2.7415 l 0,-2.804 1.4378,-1.433 2.1567,0.5607 c 4.83113,-1.629 6.40756,-2.5547 9.40818,-4.5485 -4.54541,1.8121 -7.64938,2.3284 -11.00226,1.4643 l 0,-1.9006 2.31297,-1.5576 4.68847,0 c 0.19746,0 0.39603,-0.05 0.56262,-0.1558 2.99472,-1.99 4.72953,-3.5994 7.62656,-4.7978 z"
      fill="url(#Brown)" fill-opacity="1" stroke="none" marker="none" visibility="visible" display="inline" overflow="visible">
    </path>
  </g>
</g>

</svg>