<?xml version="1.0" encoding="UTF-8"?>
<svg version="1.1" xmlns="http://www.w3.org/2000/svg" width="200" height="200">
<path d="M0 0 C66 0 132 0 200 0 C200 66 200 132 200 200 C134 200 68 200 0 200 C0 134 0 68 0 0 Z " fill="#FDFCFC" transform="translate(0,0)"/>
<path d="M0 0 C44.26605505 0 44.26605505 0 55 10 C62.74540495 18.56792583 65.31405093 26.85006945 65.14453125 38.26953125 C64.63235284 47.94555039 60.29593743 56.21416441 53.25 62.875 C38.33692728 74.97052654 17.82067936 72 0 72 C0 48.24 0 24.48 0 0 Z " fill="#102344" transform="translate(7,39)"/>
<path d="M0 0 C61.38 0 122.76 0 186 0 C186 3.96 186 7.92 186 12 C124.62 12 63.24 12 0 12 C0 8.04 0 4.08 0 0 Z " fill="#C32D4C" transform="translate(7,133)"/>
<path d="M0 0 C15.84 0 31.68 0 48 0 C48 4.95 48 9.9 48 15 C37.44 15 26.88 15 16 15 C16 19.62 16 24.24 16 29 C25.57 29 35.14 29 45 29 C45 33.95 45 38.9 45 44 C35.43 44 25.86 44 16 44 C16 53.24 16 62.48 16 72 C10.72 72 5.44 72 0 72 C0 48.24 0 24.48 0 0 Z " fill="#132646" transform="translate(77,39)"/>
<path d="M0 0 C61.38 0 122.76 0 186 0 C186 3.63 186 7.26 186 11 C124.62 11 63.24 11 0 11 C0 7.37 0 3.74 0 0 Z " fill="#BF2344" transform="translate(7,150)"/>
<path d="M0 0 C1.71066721 1.4300637 3.33304475 2.89399331 4.9140625 4.46484375 C3.4882539 7.91680142 1.81659916 9.56626935 -1.2109375 11.71484375 C-1.93539062 12.235625 -2.65984375 12.75640625 -3.40625 13.29296875 C-3.96054688 13.6796875 -4.51484375 14.06640625 -5.0859375 14.46484375 C-7.378734 13.34283695 -9.5362243 12.18609478 -11.7109375 10.83984375 C-16.92255955 8.71659032 -21.96654989 8.47134016 -27.3671875 10.19140625 C-32.5186867 12.55571372 -35.67113779 15.53272262 -38.1640625 20.69921875 C-40.33830848 27.22195669 -40.34131645 35.6901396 -37.5234375 42.02734375 C-34.63896098 46.82793681 -30.32493636 49.7185108 -25.0859375 51.46484375 C-17.22251998 52.13123507 -12.53158529 49.76194228 -6.0859375 45.46484375 C-2.1259375 48.43484375 1.8340625 51.40484375 5.9140625 54.46484375 C1.42167089 60.64188222 -3.60676168 63.8207479 -11.0859375 65.46484375 C-24.22704891 66.25227773 -34.63514859 65.71062958 -45.26953125 57.16015625 C-51.7506171 51.11114279 -55.9246854 43.87589198 -56.58984375 34.94921875 C-56.93221667 22.86636039 -55.19848455 13.75946306 -46.7734375 4.52734375 C-35.32764043 -5.8525476 -13.11750285 -9.65389255 0 0 Z " fill="#0D2142" transform="translate(187.0859375,44.53515625)"/>
<path d="M0 0 C61.38 0 122.76 0 186 0 C186 3.3 186 6.6 186 10 C124.62 10 63.24 10 0 10 C0 6.7 0 3.4 0 0 Z " fill="#BE1E40" transform="translate(7,117)"/>
<path d="M0 0 C20.65256125 0 20.65256125 0 26.90625 5.75390625 C31.29753169 10.71481174 32.22369992 14.14327376 32.3125 20.75 C32.34150391 21.45382813 32.37050781 22.15765625 32.40039062 22.8828125 C32.46302221 28.06678102 31.31416002 30.83557796 28 35 C27.443125 35.721875 26.88625 36.44375 26.3125 37.1875 C18.42085545 43.37284302 10.01171595 42 0 42 C0 28.14 0 14.28 0 0 Z " fill="#FCFCFC" transform="translate(23,54)"/>
</svg>
